<?xml version="1.0" encoding="UTF-8" standalone="no"?>
<!DOCTYPE svg PUBLIC "-//W3C//DTD SVG 1.1//EN"
 "http://www.w3.org/Graphics/SVG/1.1/DTD/svg11.dtd">
<!-- Generated by graphviz version 2.43.0 (0)
 -->
<!-- Title: finite_state_machine Pages: 1 -->
<svg width="204pt" height="92pt"
 viewBox="0.00 0.00 204.00 91.80" xmlns="http://www.w3.org/2000/svg" xmlns:xlink="http://www.w3.org/1999/xlink">
<g id="graph0" class="graph" transform="scale(1 1) rotate(0) translate(4 87.8)">
<title>finite_state_machine</title>
<polygon fill="white" stroke="transparent" points="-4,4 -4,-87.8 200,-87.8 200,4 -4,4"/>
<!-- 1 -->
<g id="node1" class="node">
<title>1</title>
<ellipse fill="none" stroke="black" cx="18" cy="-20.8" rx="18" ry="18"/>
<text text-anchor="middle" x="18" y="-17.1" font-family="Helvetica,Arial,sans-serif" font-size="14.00">1</text>
</g>
<!-- 0 -->
<g id="node2" class="node">
<title>0</title>
<ellipse fill="none" stroke="black" cx="98" cy="-65.8" rx="18" ry="18"/>
<text text-anchor="middle" x="98" y="-62.1" font-family="Helvetica,Arial,sans-serif" font-size="14.00">0</text>
</g>
<!-- 1&#45;&gt;0 -->
<g id="edge1" class="edge">
<title>1&#45;&gt;0</title>
<path fill="none" stroke="black" d="M30.44,-34.35C36.76,-41.07 45.13,-48.79 54,-53.8 58.98,-56.62 64.66,-58.8 70.22,-60.49"/>
<polygon fill="black" stroke="black" points="69.37,-63.89 79.93,-63.02 71.13,-57.11 69.37,-63.89"/>
<text text-anchor="middle" x="58" y="-60.6" font-family="Helvetica,Arial,sans-serif" font-size="14.00">0</text>
</g>
<!-- 2 -->
<g id="node3" class="node">
<title>2</title>
<ellipse fill="none" stroke="black" cx="178" cy="-20.8" rx="18" ry="18"/>
<text text-anchor="middle" x="178" y="-17.1" font-family="Helvetica,Arial,sans-serif" font-size="14.00">2</text>
</g>
<!-- 1&#45;&gt;2 -->
<g id="edge2" class="edge">
<title>1&#45;&gt;2</title>
<path fill="none" stroke="black" d="M36.21,-20.8C63.52,-20.8 117.01,-20.8 149.62,-20.8"/>
<polygon fill="black" stroke="black" points="149.81,-24.3 159.81,-20.8 149.81,-17.3 149.81,-24.3"/>
<text text-anchor="middle" x="98" y="-24.6" font-family="Helvetica,Arial,sans-serif" font-size="14.00">3</text>
</g>
<!-- 0&#45;&gt;1 -->
<g id="edge5" class="edge">
<title>0&#45;&gt;1</title>
<path fill="none" stroke="black" d="M85.02,-52.95C78.67,-46.76 70.45,-39.64 62,-34.8 56.97,-31.93 51.28,-29.55 45.71,-27.62"/>
<polygon fill="black" stroke="black" points="46.59,-24.23 36,-24.61 44.52,-30.91 46.59,-24.23"/>
<text text-anchor="middle" x="58" y="-38.6" font-family="Helvetica,Arial,sans-serif" font-size="14.00">0</text>
</g>
<!-- 0&#45;&gt;2 -->
<g id="edge6" class="edge">
<title>0&#45;&gt;2</title>
<path fill="none" stroke="black" d="M116.07,-63.02C124.28,-61.2 134.04,-58.3 142,-53.8 147.82,-50.52 153.43,-46.06 158.38,-41.48"/>
<polygon fill="black" stroke="black" points="160.93,-43.88 165.56,-34.35 156,-38.91 160.93,-43.88"/>
<text text-anchor="middle" x="138" y="-60.6" font-family="Helvetica,Arial,sans-serif" font-size="14.00">4</text>
</g>
<!-- 2&#45;&gt;1 -->
<g id="edge4" class="edge">
<title>2&#45;&gt;1</title>
<path fill="none" stroke="black" d="M161,-14.36C148.88,-9.84 131.68,-4.19 116,-1.8 100.18,0.6 95.82,0.6 80,-1.8 68.12,-3.61 55.36,-7.29 44.61,-10.94"/>
<polygon fill="black" stroke="black" points="43.24,-7.71 35,-14.36 45.59,-14.3 43.24,-7.71"/>
<text text-anchor="middle" x="98" y="-5.6" font-family="Helvetica,Arial,sans-serif" font-size="14.00">0</text>
</g>
<!-- 2&#45;&gt;0 -->
<g id="edge3" class="edge">
<title>2&#45;&gt;0</title>
<path fill="none" stroke="black" d="M160.59,-26.51C152.37,-29.66 142.4,-33.92 134,-38.8 129.31,-41.53 124.54,-44.81 120.1,-48.13"/>
<polygon fill="black" stroke="black" points="117.77,-45.51 112.05,-54.43 122.08,-51.02 117.77,-45.51"/>
<text text-anchor="middle" x="138" y="-42.6" font-family="Helvetica,Arial,sans-serif" font-size="14.00">0</text>
</g>
</g>
</svg>
