<?xml version="1.0" encoding="UTF-8" standalone="no"?>
<!DOCTYPE svg PUBLIC "-//W3C//DTD SVG 1.1//EN"
 "http://www.w3.org/Graphics/SVG/1.1/DTD/svg11.dtd">
<!-- Generated by graphviz version 2.43.0 (0)
 -->
<!-- Title: finite_state_machine Pages: 1 -->
<svg width="402pt" height="456pt"
 viewBox="0.00 0.00 402.00 456.00" xmlns="http://www.w3.org/2000/svg" xmlns:xlink="http://www.w3.org/1999/xlink">
<g id="graph0" class="graph" transform="scale(1 1) rotate(0) translate(4 452)">
<title>finite_state_machine</title>
<polygon fill="white" stroke="transparent" points="-4,4 -4,-452 398,-452 398,4 -4,4"/>
<!-- 4 -->
<g id="node1" class="node">
<title>4</title>
<ellipse fill="none" stroke="black" cx="18" cy="-164" rx="18" ry="18"/>
<text text-anchor="middle" x="18" y="-160.3" font-family="Helvetica,Arial,sans-serif" font-size="14.00">4</text>
</g>
<!-- 2 -->
<g id="node2" class="node">
<title>2</title>
<ellipse fill="none" stroke="black" cx="128" cy="-252" rx="18" ry="18"/>
<text text-anchor="middle" x="128" y="-248.3" font-family="Helvetica,Arial,sans-serif" font-size="14.00">2</text>
</g>
<!-- 4&#45;&gt;2 -->
<g id="edge1" class="edge">
<title>4&#45;&gt;2</title>
<path fill="none" stroke="black" d="M27.45,-179.93C33.7,-190.58 43.01,-204.36 54,-214 67.88,-226.17 86.34,-235.74 101.22,-242.22"/>
<polygon fill="black" stroke="black" points="100.28,-245.62 110.86,-246.22 102.96,-239.16 100.28,-245.62"/>
<text text-anchor="middle" x="73" y="-240.8" font-family="Helvetica,Arial,sans-serif" font-size="14.00">0</text>
</g>
<!-- 3 -->
<g id="node3" class="node">
<title>3</title>
<ellipse fill="none" stroke="black" cx="376" cy="-276" rx="18" ry="18"/>
<text text-anchor="middle" x="376" y="-272.3" font-family="Helvetica,Arial,sans-serif" font-size="14.00">3</text>
</g>
<!-- 4&#45;&gt;3 -->
<g id="edge2" class="edge">
<title>4&#45;&gt;3</title>
<path fill="none" stroke="black" d="M19.63,-182.14C21.63,-230.6 29.25,-361.75 54,-396 75.3,-425.48 90.63,-433 127,-433 127,-433 127,-433 289,-433 347.12,-433 366.22,-349.22 372.29,-304.06"/>
<polygon fill="black" stroke="black" points="375.78,-304.36 373.51,-294.01 368.83,-303.51 375.78,-304.36"/>
<text text-anchor="middle" x="208" y="-436.8" font-family="Helvetica,Arial,sans-serif" font-size="14.00">0</text>
</g>
<!-- 1 -->
<g id="node4" class="node">
<title>1</title>
<ellipse fill="none" stroke="black" cx="288" cy="-140" rx="18" ry="18"/>
<text text-anchor="middle" x="288" y="-136.3" font-family="Helvetica,Arial,sans-serif" font-size="14.00">1</text>
</g>
<!-- 4&#45;&gt;1 -->
<g id="edge3" class="edge">
<title>4&#45;&gt;1</title>
<path fill="none" stroke="black" d="M26.99,-148.4C33.04,-138.18 42.29,-125.39 54,-118 96.23,-91.33 114.32,-100.14 164,-95 198.02,-91.48 227.97,-101.71 252,-113 256.91,-115.31 261.78,-118.4 266.25,-121.66"/>
<polygon fill="black" stroke="black" points="264.26,-124.55 274.28,-128 268.6,-119.06 264.26,-124.55"/>
<text text-anchor="middle" x="168" y="-98.8" font-family="Helvetica,Arial,sans-serif" font-size="14.00">0</text>
</g>
<!-- 5 -->
<g id="node5" class="node">
<title>5</title>
<ellipse fill="none" stroke="black" cx="376" cy="-68" rx="18" ry="18"/>
<text text-anchor="middle" x="376" y="-64.3" font-family="Helvetica,Arial,sans-serif" font-size="14.00">5</text>
</g>
<!-- 4&#45;&gt;5 -->
<g id="edge4" class="edge">
<title>4&#45;&gt;5</title>
<path fill="none" stroke="black" d="M19.51,-145.94C21.15,-119.27 27.8,-69.05 54,-37 77.02,-8.84 90.63,0 127,0 127,0 127,0 289,0 318.68,0 344.11,-25.23 359.45,-44.95"/>
<polygon fill="black" stroke="black" points="356.83,-47.28 365.59,-53.25 362.46,-43.12 356.83,-47.28"/>
<text text-anchor="middle" x="208" y="-3.8" font-family="Helvetica,Arial,sans-serif" font-size="14.00">14</text>
</g>
<!-- 2&#45;&gt;4 -->
<g id="edge19" class="edge">
<title>2&#45;&gt;4</title>
<path fill="none" stroke="black" d="M120.28,-235.6C114.43,-223.05 104.85,-206.06 92,-195 78.61,-183.47 60.29,-175.71 45.35,-170.83"/>
<polygon fill="black" stroke="black" points="46.24,-167.44 35.66,-167.91 44.22,-174.15 46.24,-167.44"/>
<text text-anchor="middle" x="73" y="-198.8" font-family="Helvetica,Arial,sans-serif" font-size="14.00">10012</text>
</g>
<!-- 2&#45;&gt;3 -->
<g id="edge18" class="edge">
<title>2&#45;&gt;3</title>
<path fill="none" stroke="black" d="M143.47,-261.67C149.59,-265.38 156.92,-269.35 164,-272 230.97,-297.08 252.49,-288.55 324,-289 331.11,-289.04 333,-290.26 340,-289 343.25,-288.42 346.6,-287.55 349.87,-286.53"/>
<polygon fill="black" stroke="black" points="351.05,-289.83 359.31,-283.18 348.71,-283.23 351.05,-289.83"/>
<text text-anchor="middle" x="248" y="-293.8" font-family="Helvetica,Arial,sans-serif" font-size="14.00">0</text>
</g>
<!-- 0 -->
<g id="node6" class="node">
<title>0</title>
<ellipse fill="none" stroke="black" cx="208" cy="-219" rx="18" ry="18"/>
<text text-anchor="middle" x="208" y="-215.3" font-family="Helvetica,Arial,sans-serif" font-size="14.00">0</text>
</g>
<!-- 2&#45;&gt;0 -->
<g id="edge20" class="edge">
<title>2&#45;&gt;0</title>
<path fill="none" stroke="black" d="M144.78,-245.32C155.46,-240.8 169.79,-234.74 182.01,-229.57"/>
<polygon fill="black" stroke="black" points="183.39,-232.79 191.24,-225.67 180.67,-226.34 183.39,-232.79"/>
<text text-anchor="middle" x="168" y="-239.8" font-family="Helvetica,Arial,sans-serif" font-size="14.00">2</text>
</g>
<!-- 3&#45;&gt;4 -->
<g id="edge13" class="edge">
<title>3&#45;&gt;4</title>
<path fill="none" stroke="black" d="M369.94,-293.03C359.86,-322.99 334.26,-382 289,-382 127,-382 127,-382 127,-382 43.3,-382 24.47,-251.37 20.23,-192.35"/>
<polygon fill="black" stroke="black" points="23.71,-191.97 19.6,-182.21 16.73,-192.41 23.71,-191.97"/>
<text text-anchor="middle" x="208" y="-385.8" font-family="Helvetica,Arial,sans-serif" font-size="14.00">5</text>
</g>
<!-- 3&#45;&gt;2 -->
<g id="edge12" class="edge">
<title>3&#45;&gt;2</title>
<path fill="none" stroke="black" d="M357.99,-275.9C348.07,-275.78 335.32,-275.53 324,-275 263.72,-272.18 193.56,-262.26 156.01,-256.41"/>
<polygon fill="black" stroke="black" points="156.31,-252.91 145.89,-254.81 155.22,-259.83 156.31,-252.91"/>
<text text-anchor="middle" x="248" y="-272.8" font-family="Helvetica,Arial,sans-serif" font-size="14.00">2</text>
</g>
<!-- 3&#45;&gt;1 -->
<g id="edge11" class="edge">
<title>3&#45;&gt;1</title>
<path fill="none" stroke="black" d="M369.04,-259.38C362.91,-243.29 352.51,-218.54 340,-199 330.95,-184.87 318.71,-170.6 308.49,-159.63"/>
<polygon fill="black" stroke="black" points="310.91,-157.1 301.48,-152.27 305.85,-161.93 310.91,-157.1"/>
<text text-anchor="middle" x="332" y="-202.8" font-family="Helvetica,Arial,sans-serif" font-size="14.00">11</text>
</g>
<!-- 3&#45;&gt;0 -->
<g id="edge14" class="edge">
<title>3&#45;&gt;0</title>
<path fill="none" stroke="black" d="M364.37,-262.19C352.16,-247.65 330.61,-225.81 306,-218 283.25,-210.78 255.95,-211.86 236.12,-214.27"/>
<polygon fill="black" stroke="black" points="235.36,-210.84 225.95,-215.69 236.34,-217.77 235.36,-210.84"/>
<text text-anchor="middle" x="288" y="-221.8" font-family="Helvetica,Arial,sans-serif" font-size="14.00">5</text>
</g>
<!-- 1&#45;&gt;4 -->
<g id="edge8" class="edge">
<title>1&#45;&gt;4</title>
<path fill="none" stroke="black" d="M269.97,-141.53C224.75,-145.57 101.38,-156.62 46.25,-161.56"/>
<polygon fill="black" stroke="black" points="45.82,-158.08 36.17,-162.46 46.44,-165.06 45.82,-158.08"/>
<text text-anchor="middle" x="168" y="-153.8" font-family="Helvetica,Arial,sans-serif" font-size="14.00">1</text>
</g>
<!-- 1&#45;&gt;3 -->
<g id="edge6" class="edge">
<title>1&#45;&gt;3</title>
<path fill="none" stroke="black" d="M305.85,-143.04C316.99,-145.88 331.11,-151.22 340,-161 361.74,-184.92 369.99,-221.98 373.11,-247.54"/>
<polygon fill="black" stroke="black" points="369.65,-248.12 374.16,-257.71 376.61,-247.41 369.65,-248.12"/>
<text text-anchor="middle" x="332" y="-164.8" font-family="Helvetica,Arial,sans-serif" font-size="14.00">0</text>
</g>
<!-- 1&#45;&gt;5 -->
<g id="edge7" class="edge">
<title>1&#45;&gt;5</title>
<path fill="none" stroke="black" d="M303.08,-129.41C313.45,-121.51 327.81,-110.33 340,-100 344.83,-95.91 349.91,-91.39 354.67,-87.07"/>
<polygon fill="black" stroke="black" points="357.26,-89.44 362.24,-80.09 352.52,-84.29 357.26,-89.44"/>
<text text-anchor="middle" x="332" y="-115.8" font-family="Helvetica,Arial,sans-serif" font-size="14.00">21</text>
</g>
<!-- 1&#45;&gt;0 -->
<g id="edge5" class="edge">
<title>1&#45;&gt;0</title>
<path fill="none" stroke="black" d="M270.55,-145.44C261.93,-148.9 251.6,-154.05 244,-161 234.2,-169.97 226.24,-182.31 220.4,-193.3"/>
<polygon fill="black" stroke="black" points="217.14,-191.99 215.82,-202.5 223.41,-195.11 217.14,-191.99"/>
<text text-anchor="middle" x="248" y="-164.8" font-family="Helvetica,Arial,sans-serif" font-size="14.00">0</text>
</g>
<!-- 5&#45;&gt;4 -->
<g id="edge10" class="edge">
<title>5&#45;&gt;4</title>
<path fill="none" stroke="black" d="M358.7,-62.81C341.55,-57.81 313.66,-51 289,-51 127,-51 127,-51 127,-51 88.65,-51 80,-68.81 54,-97 43.22,-108.69 34.81,-124.31 28.93,-137.53"/>
<polygon fill="black" stroke="black" points="25.58,-136.5 24.94,-147.07 32.03,-139.2 25.58,-136.5"/>
<text text-anchor="middle" x="208" y="-54.8" font-family="Helvetica,Arial,sans-serif" font-size="14.00">0</text>
</g>
<!-- 5&#45;&gt;1 -->
<g id="edge9" class="edge">
<title>5&#45;&gt;1</title>
<path fill="none" stroke="black" d="M357.97,-69.04C347.32,-70.45 333.8,-73.66 324,-81 312.9,-89.31 304.66,-102.26 298.97,-113.91"/>
<polygon fill="black" stroke="black" points="295.67,-112.71 294.79,-123.27 302.06,-115.57 295.67,-112.71"/>
<text text-anchor="middle" x="332" y="-84.8" font-family="Helvetica,Arial,sans-serif" font-size="14.00">0</text>
</g>
<!-- 0&#45;&gt;2 -->
<g id="edge17" class="edge">
<title>0&#45;&gt;2</title>
<path fill="none" stroke="black" d="M190.49,-214.4C182.24,-212.95 172.27,-212.51 164,-216 157.09,-218.92 150.88,-223.94 145.67,-229.32"/>
<polygon fill="black" stroke="black" points="142.69,-227.41 138.79,-237.26 147.98,-231.99 142.69,-227.41"/>
<text text-anchor="middle" x="168" y="-219.8" font-family="Helvetica,Arial,sans-serif" font-size="14.00">6</text>
</g>
<!-- 0&#45;&gt;3 -->
<g id="edge16" class="edge">
<title>0&#45;&gt;3</title>
<path fill="none" stroke="black" d="M225.22,-224.57C254.03,-234.46 314.35,-255.17 349.01,-267.08"/>
<polygon fill="black" stroke="black" points="347.87,-270.39 358.47,-270.32 350.15,-263.77 347.87,-270.39"/>
<text text-anchor="middle" x="288" y="-255.8" font-family="Helvetica,Arial,sans-serif" font-size="14.00">5</text>
</g>
<!-- 0&#45;&gt;1 -->
<g id="edge15" class="edge">
<title>0&#45;&gt;1</title>
<path fill="none" stroke="black" d="M221.47,-206.63C230.07,-198.06 241.77,-186.37 252,-176 257.1,-170.83 262.59,-165.21 267.67,-159.98"/>
<polygon fill="black" stroke="black" points="270.28,-162.32 274.73,-152.7 265.26,-157.44 270.28,-162.32"/>
<text text-anchor="middle" x="248" y="-186.8" font-family="Helvetica,Arial,sans-serif" font-size="14.00">7</text>
</g>
</g>
</svg>
