<?xml version="1.0" encoding="UTF-8" standalone="no"?>
<!DOCTYPE svg PUBLIC "-//W3C//DTD SVG 1.1//EN"
 "http://www.w3.org/Graphics/SVG/1.1/DTD/svg11.dtd">
<!-- Generated by graphviz version 2.43.0 (0)
 -->
<!-- Title: finite_state_machine Pages: 1 -->
<svg width="597pt" height="270pt"
 viewBox="0.00 0.00 596.79 270.00" xmlns="http://www.w3.org/2000/svg" xmlns:xlink="http://www.w3.org/1999/xlink">
<g id="graph0" class="graph" transform="scale(1 1) rotate(0) translate(4 266)">
<title>finite_state_machine</title>
<polygon fill="white" stroke="transparent" points="-4,4 -4,-266 592.79,-266 592.79,4 -4,4"/>
<!-- 0 -->
<g id="node1" class="node">
<title>0</title>
<ellipse fill="none" stroke="black" cx="18" cy="-143" rx="18" ry="18"/>
<text text-anchor="middle" x="18" y="-139.3" font-family="Helvetica,Arial,sans-serif" font-size="14.00">0</text>
</g>
<!-- 3 -->
<g id="node2" class="node">
<title>3</title>
<ellipse fill="none" stroke="black" cx="98" cy="-72" rx="18" ry="18"/>
<text text-anchor="middle" x="98" y="-68.3" font-family="Helvetica,Arial,sans-serif" font-size="14.00">3</text>
</g>
<!-- 0&#45;&gt;3 -->
<g id="edge1" class="edge">
<title>0&#45;&gt;3</title>
<path fill="none" stroke="black" d="M31.88,-131.28C43.96,-120.28 62.23,-103.65 76.35,-90.8"/>
<polygon fill="black" stroke="black" points="79.06,-93.06 84.1,-83.74 74.35,-87.88 79.06,-93.06"/>
<text text-anchor="middle" x="58" y="-112.8" font-family="Helvetica,Arial,sans-serif" font-size="14.00">0</text>
</g>
<!-- 2 -->
<g id="node3" class="node">
<title>2</title>
<ellipse fill="none" stroke="black" cx="152" cy="-204" rx="18" ry="18"/>
<text text-anchor="middle" x="152" y="-200.3" font-family="Helvetica,Arial,sans-serif" font-size="14.00">2</text>
</g>
<!-- 0&#45;&gt;2 -->
<g id="edge2" class="edge">
<title>0&#45;&gt;2</title>
<path fill="none" stroke="black" d="M34.66,-150.24C57.29,-160.69 99.35,-180.13 126.21,-192.55"/>
<polygon fill="black" stroke="black" points="124.81,-195.75 135.36,-196.77 127.75,-189.4 124.81,-195.75"/>
<text text-anchor="middle" x="58" y="-164.8" font-family="Helvetica,Arial,sans-serif" font-size="14.00">2</text>
</g>
<!-- 1 -->
<g id="node4" class="node">
<title>1</title>
<ellipse fill="none" stroke="black" cx="206" cy="-143" rx="18" ry="18"/>
<text text-anchor="middle" x="206" y="-139.3" font-family="Helvetica,Arial,sans-serif" font-size="14.00">1</text>
</g>
<!-- 0&#45;&gt;1 -->
<g id="edge3" class="edge">
<title>0&#45;&gt;1</title>
<path fill="none" stroke="black" d="M36.17,-143C68.55,-143 138.91,-143 177.8,-143"/>
<polygon fill="black" stroke="black" points="177.88,-146.5 187.88,-143 177.88,-139.5 177.88,-146.5"/>
<text text-anchor="middle" x="98" y="-146.8" font-family="Helvetica,Arial,sans-serif" font-size="14.00">0</text>
</g>
<!-- 6 -->
<g id="node6" class="node">
<title>6</title>
<ellipse fill="none" stroke="black" cx="288.8" cy="-86" rx="18" ry="18"/>
<text text-anchor="middle" x="288.8" y="-82.3" font-family="Helvetica,Arial,sans-serif" font-size="14.00">6</text>
</g>
<!-- 3&#45;&gt;6 -->
<g id="edge10" class="edge">
<title>3&#45;&gt;6</title>
<path fill="none" stroke="black" d="M116.09,-73.27C148.93,-75.7 221.11,-81.05 260.62,-83.98"/>
<polygon fill="black" stroke="black" points="260.38,-87.48 270.61,-84.73 260.9,-80.5 260.38,-87.48"/>
<text text-anchor="middle" x="206" y="-84.8" font-family="Helvetica,Arial,sans-serif" font-size="14.00">0</text>
</g>
<!-- 8 -->
<g id="node10" class="node">
<title>8</title>
<ellipse fill="none" stroke="black" cx="206" cy="-18" rx="18" ry="18"/>
<text text-anchor="middle" x="206" y="-14.3" font-family="Helvetica,Arial,sans-serif" font-size="14.00">8</text>
</g>
<!-- 3&#45;&gt;8 -->
<g id="edge11" class="edge">
<title>3&#45;&gt;8</title>
<path fill="none" stroke="black" d="M111.48,-59.8C117.83,-54.11 125.9,-47.59 134,-43 147.86,-35.15 164.63,-29.11 178.38,-24.93"/>
<polygon fill="black" stroke="black" points="179.57,-28.23 188.22,-22.1 177.64,-21.5 179.57,-28.23"/>
<text text-anchor="middle" x="152" y="-46.8" font-family="Helvetica,Arial,sans-serif" font-size="14.00">0</text>
</g>
<!-- 5 -->
<g id="node7" class="node">
<title>5</title>
<ellipse fill="none" stroke="black" cx="288.8" cy="-202" rx="18" ry="18"/>
<text text-anchor="middle" x="288.8" y="-198.3" font-family="Helvetica,Arial,sans-serif" font-size="14.00">5</text>
</g>
<!-- 2&#45;&gt;5 -->
<g id="edge8" class="edge">
<title>2&#45;&gt;5</title>
<path fill="none" stroke="black" d="M170.07,-203.75C192.74,-203.41 233.04,-202.81 260.09,-202.41"/>
<polygon fill="black" stroke="black" points="260.49,-205.91 270.44,-202.26 260.39,-198.91 260.49,-205.91"/>
<text text-anchor="middle" x="206" y="-206.8" font-family="Helvetica,Arial,sans-serif" font-size="14.00">0</text>
</g>
<!-- 4 -->
<g id="node5" class="node">
<title>4</title>
<ellipse fill="none" stroke="black" cx="345.6" cy="-143" rx="18" ry="18"/>
<text text-anchor="middle" x="345.6" y="-139.3" font-family="Helvetica,Arial,sans-serif" font-size="14.00">4</text>
</g>
<!-- 1&#45;&gt;4 -->
<g id="edge4" class="edge">
<title>1&#45;&gt;4</title>
<path fill="none" stroke="black" d="M224.15,-143C247.43,-143 289.29,-143 317.02,-143"/>
<polygon fill="black" stroke="black" points="317.23,-146.5 327.23,-143 317.23,-139.5 317.23,-146.5"/>
<text text-anchor="middle" x="246" y="-146.8" font-family="Helvetica,Arial,sans-serif" font-size="14.00">0</text>
</g>
<!-- 1&#45;&gt;6 -->
<g id="edge5" class="edge">
<title>1&#45;&gt;6</title>
<path fill="none" stroke="black" d="M217.86,-129.02C224.26,-121.47 232.88,-112.4 242,-106 248.01,-101.78 255.05,-98.16 261.79,-95.21"/>
<polygon fill="black" stroke="black" points="263.32,-98.37 271.28,-91.37 260.7,-91.88 263.32,-98.37"/>
<text text-anchor="middle" x="246" y="-109.8" font-family="Helvetica,Arial,sans-serif" font-size="14.00">0</text>
</g>
<!-- 1&#45;&gt;5 -->
<g id="edge6" class="edge">
<title>1&#45;&gt;5</title>
<path fill="none" stroke="black" d="M221.07,-153.28C233.36,-162.24 251.38,-175.41 265.61,-185.8"/>
<polygon fill="black" stroke="black" points="263.75,-188.77 273.89,-191.84 267.87,-183.12 263.75,-188.77"/>
<text text-anchor="middle" x="246" y="-177.8" font-family="Helvetica,Arial,sans-serif" font-size="14.00">0</text>
</g>
<!-- 10 -->
<g id="node8" class="node">
<title>10</title>
<ellipse fill="none" stroke="black" cx="482.39" cy="-193" rx="20.6" ry="20.6"/>
<text text-anchor="middle" x="482.39" y="-189.3" font-family="Helvetica,Arial,sans-serif" font-size="14.00">10</text>
</g>
<!-- 4&#45;&gt;10 -->
<g id="edge7" class="edge">
<title>4&#45;&gt;10</title>
<path fill="none" stroke="black" d="M363.67,-144.46C378.33,-146.11 399.84,-149.45 417.6,-156 431.06,-160.96 444.96,-168.67 456.33,-175.77"/>
<polygon fill="black" stroke="black" points="454.56,-178.79 464.86,-181.27 458.35,-172.9 454.56,-178.79"/>
<text text-anchor="middle" x="399.6" y="-159.8" font-family="Helvetica,Arial,sans-serif" font-size="14.00">0</text>
</g>
<!-- 9 -->
<g id="node11" class="node">
<title>9</title>
<ellipse fill="none" stroke="black" cx="399.6" cy="-86" rx="18" ry="18"/>
<text text-anchor="middle" x="399.6" y="-82.3" font-family="Helvetica,Arial,sans-serif" font-size="14.00">9</text>
</g>
<!-- 6&#45;&gt;9 -->
<g id="edge12" class="edge">
<title>6&#45;&gt;9</title>
<path fill="none" stroke="black" d="M307.28,-86C324.59,-86 351.35,-86 371.43,-86"/>
<polygon fill="black" stroke="black" points="371.52,-89.5 381.52,-86 371.52,-82.5 371.52,-89.5"/>
<text text-anchor="middle" x="345.6" y="-89.8" font-family="Helvetica,Arial,sans-serif" font-size="14.00">0</text>
</g>
<!-- 5&#45;&gt;10 -->
<g id="edge16" class="edge">
<title>5&#45;&gt;10</title>
<path fill="none" stroke="black" d="M306.8,-201.2C339.34,-199.67 410.78,-196.32 451.47,-194.41"/>
<polygon fill="black" stroke="black" points="451.77,-197.9 461.59,-193.93 451.44,-190.9 451.77,-197.9"/>
<text text-anchor="middle" x="399.6" y="-200.8" font-family="Helvetica,Arial,sans-serif" font-size="14.00">0</text>
</g>
<!-- 7 -->
<g id="node13" class="node">
<title>7</title>
<ellipse fill="none" stroke="black" cx="399.6" cy="-244" rx="18" ry="18"/>
<text text-anchor="middle" x="399.6" y="-240.3" font-family="Helvetica,Arial,sans-serif" font-size="14.00">7</text>
</g>
<!-- 5&#45;&gt;7 -->
<g id="edge17" class="edge">
<title>5&#45;&gt;7</title>
<path fill="none" stroke="black" d="M305.85,-208.2C323.53,-215.02 352.2,-226.09 372.99,-234.11"/>
<polygon fill="black" stroke="black" points="371.89,-237.44 382.48,-237.78 374.41,-230.91 371.89,-237.44"/>
<text text-anchor="middle" x="345.6" y="-233.8" font-family="Helvetica,Arial,sans-serif" font-size="14.00">0</text>
</g>
<!-- 12 -->
<g id="node9" class="node">
<title>12</title>
<ellipse fill="none" stroke="black" cx="567.99" cy="-225" rx="20.6" ry="20.6"/>
<text text-anchor="middle" x="567.99" y="-221.3" font-family="Helvetica,Arial,sans-serif" font-size="14.00">12</text>
</g>
<!-- 10&#45;&gt;12 -->
<g id="edge9" class="edge">
<title>10&#45;&gt;12</title>
<path fill="none" stroke="black" d="M501.95,-200.1C512.69,-204.22 526.45,-209.48 538.54,-214.11"/>
<polygon fill="black" stroke="black" points="537.61,-217.5 548.2,-217.81 540.11,-210.96 537.61,-217.5"/>
<text text-anchor="middle" x="525.19" y="-212.8" font-family="Helvetica,Arial,sans-serif" font-size="14.00">0</text>
</g>
<!-- 11 -->
<g id="node12" class="node">
<title>11</title>
<ellipse fill="none" stroke="black" cx="288.8" cy="-28" rx="20.6" ry="20.6"/>
<text text-anchor="middle" x="288.8" y="-24.3" font-family="Helvetica,Arial,sans-serif" font-size="14.00">11</text>
</g>
<!-- 8&#45;&gt;11 -->
<g id="edge13" class="edge">
<title>8&#45;&gt;11</title>
<path fill="none" stroke="black" d="M224.14,-20.12C233.99,-21.34 246.66,-22.91 258.09,-24.32"/>
<polygon fill="black" stroke="black" points="257.78,-27.81 268.13,-25.57 258.64,-20.86 257.78,-27.81"/>
<text text-anchor="middle" x="246" y="-27.8" font-family="Helvetica,Arial,sans-serif" font-size="14.00">0</text>
</g>
<!-- 9&#45;&gt;10 -->
<g id="edge15" class="edge">
<title>9&#45;&gt;10</title>
<path fill="none" stroke="black" d="M416.48,-93.17C425.36,-97.81 436.11,-104.56 443.6,-113 456.51,-127.56 465.9,-147.3 472.09,-163.53"/>
<polygon fill="black" stroke="black" points="468.86,-164.88 475.54,-173.11 475.45,-162.51 468.86,-164.88"/>
<text text-anchor="middle" x="439.6" y="-116.8" font-family="Helvetica,Arial,sans-serif" font-size="14.00">0</text>
</g>
<!-- 11&#45;&gt;9 -->
<g id="edge14" class="edge">
<title>11&#45;&gt;9</title>
<path fill="none" stroke="black" d="M307.72,-37.4C322.69,-45.27 344.56,-56.8 363.6,-67 367.03,-68.84 370.64,-70.79 374.2,-72.71"/>
<polygon fill="black" stroke="black" points="372.82,-75.95 383.28,-77.64 376.16,-69.79 372.82,-75.95"/>
<text text-anchor="middle" x="345.6" y="-70.8" font-family="Helvetica,Arial,sans-serif" font-size="14.00">0</text>
</g>
<!-- 7&#45;&gt;10 -->
<g id="edge19" class="edge">
<title>7&#45;&gt;10</title>
<path fill="none" stroke="black" d="M415.42,-234.65C426.67,-227.54 442.42,-217.6 455.71,-209.21"/>
<polygon fill="black" stroke="black" points="457.84,-212 464.43,-203.71 454.11,-206.08 457.84,-212"/>
<text text-anchor="middle" x="439.6" y="-224.8" font-family="Helvetica,Arial,sans-serif" font-size="14.00">0</text>
</g>
<!-- 7&#45;&gt;12 -->
<g id="edge18" class="edge">
<title>7&#45;&gt;12</title>
<path fill="none" stroke="black" d="M417.77,-242.51C425.64,-241.8 435.1,-240.91 443.6,-240 475.7,-236.56 512.43,-232.01 537.41,-228.83"/>
<polygon fill="black" stroke="black" points="537.87,-232.3 547.35,-227.56 536.99,-225.36 537.87,-232.3"/>
<text text-anchor="middle" x="482.39" y="-240.8" font-family="Helvetica,Arial,sans-serif" font-size="14.00">0</text>
</g>
</g>
</svg>
