<?xml version="1.0" encoding="UTF-8" standalone="no"?>
<!DOCTYPE svg PUBLIC "-//W3C//DTD SVG 1.1//EN"
 "http://www.w3.org/Graphics/SVG/1.1/DTD/svg11.dtd">
<!-- Generated by graphviz version 2.43.0 (0)
 -->
<!-- Title: finite_state_machine Pages: 1 -->
<svg width="460pt" height="484pt"
 viewBox="0.00 0.00 460.00 484.00" xmlns="http://www.w3.org/2000/svg" xmlns:xlink="http://www.w3.org/1999/xlink">
<g id="graph0" class="graph" transform="scale(1 1) rotate(0) translate(4 480)">
<title>finite_state_machine</title>
<polygon fill="white" stroke="transparent" points="-4,4 -4,-480 456,-480 456,4 -4,4"/>
<!-- 2 -->
<g id="node1" class="node">
<title>2</title>
<ellipse fill="none" stroke="black" cx="18" cy="-109" rx="18" ry="18"/>
<text text-anchor="middle" x="18" y="-105.3" font-family="Helvetica,Arial,sans-serif" font-size="14.00">2</text>
</g>
<!-- 0 -->
<g id="node2" class="node">
<title>0</title>
<ellipse fill="none" stroke="black" cx="98" cy="-214" rx="18" ry="18"/>
<text text-anchor="middle" x="98" y="-210.3" font-family="Helvetica,Arial,sans-serif" font-size="14.00">0</text>
</g>
<!-- 2&#45;&gt;0 -->
<g id="edge1" class="edge">
<title>2&#45;&gt;0</title>
<path fill="none" stroke="black" d="M23.17,-126.35C28.1,-143.84 37.75,-170.78 54,-189 58.94,-194.54 65.42,-199.18 71.84,-202.9"/>
<polygon fill="black" stroke="black" points="70.53,-206.17 81.02,-207.69 73.77,-199.96 70.53,-206.17"/>
<text text-anchor="middle" x="58" y="-199.8" font-family="Helvetica,Arial,sans-serif" font-size="14.00">0</text>
</g>
<!-- 3 -->
<g id="node3" class="node">
<title>3</title>
<ellipse fill="none" stroke="black" cx="434" cy="-232" rx="18" ry="18"/>
<text text-anchor="middle" x="434" y="-228.3" font-family="Helvetica,Arial,sans-serif" font-size="14.00">3</text>
</g>
<!-- 2&#45;&gt;3 -->
<g id="edge2" class="edge">
<title>2&#45;&gt;3</title>
<path fill="none" stroke="black" d="M27.23,-93.24C39.43,-72.33 64.41,-38 97,-38 97,-38 97,-38 355,-38 425.47,-38 433.92,-149.56 433.88,-203.48"/>
<polygon fill="black" stroke="black" points="430.38,-203.71 433.77,-213.75 437.38,-203.79 430.38,-203.71"/>
<text text-anchor="middle" x="222" y="-41.8" font-family="Helvetica,Arial,sans-serif" font-size="14.00">0</text>
</g>
<!-- 4 -->
<g id="node4" class="node">
<title>4</title>
<ellipse fill="none" stroke="black" cx="354" cy="-238" rx="18" ry="18"/>
<text text-anchor="middle" x="354" y="-234.3" font-family="Helvetica,Arial,sans-serif" font-size="14.00">4</text>
</g>
<!-- 2&#45;&gt;4 -->
<g id="edge3" class="edge">
<title>2&#45;&gt;4</title>
<path fill="none" stroke="black" d="M36.16,-108.16C80.43,-106.78 200.84,-108.01 284,-156 307.82,-169.75 327.14,-194.96 339.21,-213.81"/>
<polygon fill="black" stroke="black" points="336.32,-215.79 344.54,-222.47 342.28,-212.12 336.32,-215.79"/>
<text text-anchor="middle" x="178" y="-125.8" font-family="Helvetica,Arial,sans-serif" font-size="14.00">12</text>
</g>
<!-- 0&#45;&gt;2 -->
<g id="edge20" class="edge">
<title>0&#45;&gt;2</title>
<path fill="none" stroke="black" d="M86.4,-199.73C73.33,-182.14 50.98,-152.05 35.63,-131.38"/>
<polygon fill="black" stroke="black" points="38.29,-129.1 29.52,-123.16 32.67,-133.28 38.29,-129.1"/>
<text text-anchor="middle" x="58" y="-167.8" font-family="Helvetica,Arial,sans-serif" font-size="14.00">8</text>
</g>
<!-- 0&#45;&gt;3 -->
<g id="edge19" class="edge">
<title>0&#45;&gt;3</title>
<path fill="none" stroke="black" d="M100.77,-232.16C106.81,-289.2 129,-461 177,-461 177,-461 177,-461 355,-461 397,-461 420.98,-321.24 429.46,-260.09"/>
<polygon fill="black" stroke="black" points="432.96,-260.35 430.82,-249.97 426.02,-259.41 432.96,-260.35"/>
<text text-anchor="middle" x="266" y="-464.8" font-family="Helvetica,Arial,sans-serif" font-size="14.00">10</text>
</g>
<!-- 1 -->
<g id="node5" class="node">
<title>1</title>
<ellipse fill="none" stroke="black" cx="178" cy="-268" rx="18" ry="18"/>
<text text-anchor="middle" x="178" y="-264.3" font-family="Helvetica,Arial,sans-serif" font-size="14.00">1</text>
</g>
<!-- 0&#45;&gt;1 -->
<g id="edge18" class="edge">
<title>0&#45;&gt;1</title>
<path fill="none" stroke="black" d="M112.4,-224.82C118.83,-229.89 126.7,-235.91 134,-241 140.12,-245.27 146.9,-249.67 153.22,-253.64"/>
<polygon fill="black" stroke="black" points="151.7,-256.81 162.04,-259.1 155.38,-250.86 151.7,-256.81"/>
<text text-anchor="middle" x="138" y="-248.8" font-family="Helvetica,Arial,sans-serif" font-size="14.00">7</text>
</g>
<!-- 3&#45;&gt;2 -->
<g id="edge6" class="edge">
<title>3&#45;&gt;2</title>
<path fill="none" stroke="black" d="M432.73,-214.01C431.56,-179.88 425.75,-104.11 398,-48 385.3,-22.33 383.64,0 355,0 97,0 97,0 97,0 56.9,0 35.44,-49.4 25.7,-81.69"/>
<polygon fill="black" stroke="black" points="22.28,-80.91 22.94,-91.49 29.02,-82.81 22.28,-80.91"/>
<text text-anchor="middle" x="222" y="-3.8" font-family="Helvetica,Arial,sans-serif" font-size="14.00">2</text>
</g>
<!-- 3&#45;&gt;0 -->
<g id="edge4" class="edge">
<title>3&#45;&gt;0</title>
<path fill="none" stroke="black" d="M422.23,-218.09C408.5,-202.09 383.16,-178 355,-178 177,-178 177,-178 177,-178 156.87,-178 136.28,-188.01 121.31,-197.47"/>
<polygon fill="black" stroke="black" points="119.13,-194.72 112.78,-203.2 123.03,-200.53 119.13,-194.72"/>
<text text-anchor="middle" x="266" y="-181.8" font-family="Helvetica,Arial,sans-serif" font-size="14.00">0</text>
</g>
<!-- 3&#45;&gt;4 -->
<g id="edge7" class="edge">
<title>3&#45;&gt;4</title>
<path fill="none" stroke="black" d="M419.31,-220.95C410.98,-215.58 400.05,-210.89 390,-214 385.24,-215.48 380.55,-217.85 376.22,-220.54"/>
<polygon fill="black" stroke="black" points="374.14,-217.73 367.95,-226.33 378.15,-223.46 374.14,-217.73"/>
<text text-anchor="middle" x="394" y="-217.8" font-family="Helvetica,Arial,sans-serif" font-size="14.00">5</text>
</g>
<!-- 3&#45;&gt;1 -->
<g id="edge5" class="edge">
<title>3&#45;&gt;1</title>
<path fill="none" stroke="black" d="M421,-244.68C397.49,-268.36 342.52,-318.19 284,-332 252.74,-339.38 238.49,-334.78 214,-314 206.44,-307.58 199.5,-299.27 193.83,-291.47"/>
<polygon fill="black" stroke="black" points="196.56,-289.27 188,-283.03 190.8,-293.24 196.56,-289.27"/>
<text text-anchor="middle" x="310" y="-329.8" font-family="Helvetica,Arial,sans-serif" font-size="14.00">11</text>
</g>
<!-- 4&#45;&gt;2 -->
<g id="edge12" class="edge">
<title>4&#45;&gt;2</title>
<path fill="none" stroke="black" d="M351.36,-220.03C346.55,-179.41 328.7,-84 267,-84 97,-84 97,-84 97,-84 78.45,-84 58.56,-90.49 43.5,-96.86"/>
<polygon fill="black" stroke="black" points="42.06,-93.67 34.37,-100.95 44.93,-100.05 42.06,-93.67"/>
<text text-anchor="middle" x="178" y="-87.8" font-family="Helvetica,Arial,sans-serif" font-size="14.00">0</text>
</g>
<!-- 4&#45;&gt;3 -->
<g id="edge13" class="edge">
<title>4&#45;&gt;3</title>
<path fill="none" stroke="black" d="M372.31,-236.67C382.17,-235.91 394.75,-234.94 405.9,-234.08"/>
<polygon fill="black" stroke="black" points="406.3,-237.56 416.01,-233.31 405.77,-230.58 406.3,-237.56"/>
<text text-anchor="middle" x="394" y="-238.8" font-family="Helvetica,Arial,sans-serif" font-size="14.00">0</text>
</g>
<!-- 4&#45;&gt;1 -->
<g id="edge14" class="edge">
<title>4&#45;&gt;1</title>
<path fill="none" stroke="black" d="M337.6,-245.49C331.59,-248.17 324.58,-251.02 318,-253 273.22,-266.48 260.76,-269.67 214,-269 211.45,-268.96 208.79,-268.91 206.13,-268.85"/>
<polygon fill="black" stroke="black" points="206.18,-265.35 196.09,-268.59 205.99,-272.35 206.18,-265.35"/>
<text text-anchor="middle" x="266" y="-271.8" font-family="Helvetica,Arial,sans-serif" font-size="14.00">0</text>
</g>
<!-- 5 -->
<g id="node6" class="node">
<title>5</title>
<ellipse fill="none" stroke="black" cx="266" cy="-229" rx="18" ry="18"/>
<text text-anchor="middle" x="266" y="-225.3" font-family="Helvetica,Arial,sans-serif" font-size="14.00">5</text>
</g>
<!-- 4&#45;&gt;5 -->
<g id="edge15" class="edge">
<title>4&#45;&gt;5</title>
<path fill="none" stroke="black" d="M340.05,-226.33C333.84,-221.52 326.02,-216.49 318,-214 309.26,-211.29 299.63,-212.93 291.12,-215.96"/>
<polygon fill="black" stroke="black" points="289.57,-212.82 281.76,-219.97 292.33,-219.25 289.57,-212.82"/>
<text text-anchor="middle" x="310" y="-217.8" font-family="Helvetica,Arial,sans-serif" font-size="14.00">14</text>
</g>
<!-- 1&#45;&gt;0 -->
<g id="edge8" class="edge">
<title>1&#45;&gt;0</title>
<path fill="none" stroke="black" d="M167.72,-252.77C161.5,-243.76 152.52,-232.8 142,-226 137.12,-222.84 131.41,-220.51 125.77,-218.78"/>
<polygon fill="black" stroke="black" points="126.45,-215.34 115.9,-216.29 124.74,-222.13 126.45,-215.34"/>
<text text-anchor="middle" x="138" y="-229.8" font-family="Helvetica,Arial,sans-serif" font-size="14.00">0</text>
</g>
<!-- 1&#45;&gt;3 -->
<g id="edge9" class="edge">
<title>1&#45;&gt;3</title>
<path fill="none" stroke="black" d="M184.47,-285.01C189.91,-299.49 199.53,-319.95 214,-333 248.56,-364.16 273.6,-358.91 318,-345 363.79,-330.65 399.83,-284.84 418.64,-256.14"/>
<polygon fill="black" stroke="black" points="421.73,-257.81 424.13,-247.49 415.82,-254.06 421.73,-257.81"/>
<text text-anchor="middle" x="310" y="-352.8" font-family="Helvetica,Arial,sans-serif" font-size="14.00">0</text>
</g>
<!-- 1&#45;&gt;4 -->
<g id="edge11" class="edge">
<title>1&#45;&gt;4</title>
<path fill="none" stroke="black" d="M191.13,-280.89C197.39,-286.75 205.49,-293.21 214,-297 256.22,-315.8 279.61,-322.74 318,-297 329.59,-289.23 337.91,-276.21 343.51,-264.37"/>
<polygon fill="black" stroke="black" points="346.87,-265.42 347.6,-254.85 340.44,-262.66 346.87,-265.42"/>
<text text-anchor="middle" x="266" y="-316.8" font-family="Helvetica,Arial,sans-serif" font-size="14.00">1</text>
</g>
<!-- 1&#45;&gt;5 -->
<g id="edge10" class="edge">
<title>1&#45;&gt;5</title>
<path fill="none" stroke="black" d="M194.77,-260.85C207.38,-255.13 225.29,-247.01 239.87,-240.4"/>
<polygon fill="black" stroke="black" points="241.66,-243.43 249.33,-236.11 238.77,-237.05 241.66,-243.43"/>
<text text-anchor="middle" x="222" y="-254.8" font-family="Helvetica,Arial,sans-serif" font-size="14.00">21</text>
</g>
<!-- 5&#45;&gt;4 -->
<g id="edge17" class="edge">
<title>5&#45;&gt;4</title>
<path fill="none" stroke="black" d="M283.99,-230.78C295.89,-232.02 312.04,-233.71 325.73,-235.15"/>
<polygon fill="black" stroke="black" points="325.73,-238.67 336.04,-236.23 326.46,-231.7 325.73,-238.67"/>
<text text-anchor="middle" x="310" y="-237.8" font-family="Helvetica,Arial,sans-serif" font-size="14.00">0</text>
</g>
<!-- 5&#45;&gt;1 -->
<g id="edge16" class="edge">
<title>5&#45;&gt;1</title>
<path fill="none" stroke="black" d="M248.62,-224.17C238.23,-222.02 224.76,-220.96 214,-226 205.72,-229.88 198.72,-236.78 193.2,-243.89"/>
<polygon fill="black" stroke="black" points="190.29,-241.95 187.42,-252.15 196.02,-245.96 190.29,-241.95"/>
<text text-anchor="middle" x="222" y="-229.8" font-family="Helvetica,Arial,sans-serif" font-size="14.00">0</text>
</g>
</g>
</svg>
