<?xml version="1.0" encoding="UTF-8" standalone="no"?>
<!DOCTYPE svg PUBLIC "-//W3C//DTD SVG 1.1//EN"
 "http://www.w3.org/Graphics/SVG/1.1/DTD/svg11.dtd">
<!-- Generated by graphviz version 2.43.0 (0)
 -->
<!-- Title: finite_state_machine Pages: 1 -->
<svg width="548pt" height="226pt"
 viewBox="0.00 0.00 548.00 226.00" xmlns="http://www.w3.org/2000/svg" xmlns:xlink="http://www.w3.org/1999/xlink">
<g id="graph0" class="graph" transform="scale(1 1) rotate(0) translate(4 222)">
<title>finite_state_machine</title>
<polygon fill="white" stroke="transparent" points="-4,4 -4,-222 544,-222 544,4 -4,4"/>
<!-- 2 -->
<g id="node1" class="node">
<title>2</title>
<ellipse fill="none" stroke="black" cx="186" cy="-165" rx="18" ry="18"/>
<text text-anchor="middle" x="186" y="-161.3" font-family="Helvetica,Arial,sans-serif" font-size="14.00">2</text>
</g>
<!-- 3 -->
<g id="node2" class="node">
<title>3</title>
<ellipse fill="none" stroke="black" cx="274" cy="-110" rx="18" ry="18"/>
<text text-anchor="middle" x="274" y="-106.3" font-family="Helvetica,Arial,sans-serif" font-size="14.00">3</text>
</g>
<!-- 2&#45;&gt;3 -->
<g id="edge1" class="edge">
<title>2&#45;&gt;3</title>
<path fill="none" stroke="black" d="M201.59,-155.67C214.81,-147.22 234.51,-134.61 249.88,-124.79"/>
<polygon fill="black" stroke="black" points="251.8,-127.71 258.34,-119.38 248.03,-121.81 251.8,-127.71"/>
<text text-anchor="middle" x="230" y="-145.8" font-family="Helvetica,Arial,sans-serif" font-size="14.00">11</text>
</g>
<!-- 4 -->
<g id="node4" class="node">
<title>4</title>
<ellipse fill="none" stroke="black" cx="362" cy="-173" rx="18" ry="18"/>
<text text-anchor="middle" x="362" y="-169.3" font-family="Helvetica,Arial,sans-serif" font-size="14.00">4</text>
</g>
<!-- 3&#45;&gt;4 -->
<g id="edge8" class="edge">
<title>3&#45;&gt;4</title>
<path fill="none" stroke="black" d="M289.56,-119.14C299.92,-125.77 314.05,-135.1 326,-144 330.67,-147.48 335.55,-151.36 340.14,-155.12"/>
<polygon fill="black" stroke="black" points="338.05,-157.93 347.96,-161.65 342.53,-152.56 338.05,-157.93"/>
<text text-anchor="middle" x="318" y="-147.8" font-family="Helvetica,Arial,sans-serif" font-size="14.00">0</text>
</g>
<!-- 5 -->
<g id="node5" class="node">
<title>5</title>
<ellipse fill="none" stroke="black" cx="442" cy="-110" rx="18" ry="18"/>
<text text-anchor="middle" x="442" y="-106.3" font-family="Helvetica,Arial,sans-serif" font-size="14.00">5</text>
</g>
<!-- 3&#45;&gt;5 -->
<g id="edge7" class="edge">
<title>3&#45;&gt;5</title>
<path fill="none" stroke="black" d="M292.14,-110C320.84,-110 378.87,-110 413.39,-110"/>
<polygon fill="black" stroke="black" points="413.7,-113.5 423.7,-110 413.7,-106.5 413.7,-113.5"/>
<text text-anchor="middle" x="362" y="-113.8" font-family="Helvetica,Arial,sans-serif" font-size="14.00">6</text>
</g>
<!-- 7 -->
<g id="node6" class="node">
<title>7</title>
<ellipse fill="none" stroke="black" cx="522" cy="-87" rx="18" ry="18"/>
<text text-anchor="middle" x="522" y="-83.3" font-family="Helvetica,Arial,sans-serif" font-size="14.00">7</text>
</g>
<!-- 3&#45;&gt;7 -->
<g id="edge9" class="edge">
<title>3&#45;&gt;7</title>
<path fill="none" stroke="black" d="M291.85,-105.93C319.32,-99.52 375.56,-87.35 424,-83 439.94,-81.57 444.01,-82.48 460,-83 471.02,-83.36 483.15,-84.09 493.66,-84.82"/>
<polygon fill="black" stroke="black" points="493.69,-88.34 503.92,-85.58 494.21,-81.35 493.69,-88.34"/>
<text text-anchor="middle" x="402" y="-88.8" font-family="Helvetica,Arial,sans-serif" font-size="14.00">1</text>
</g>
<!-- 6 -->
<g id="node7" class="node">
<title>6</title>
<ellipse fill="none" stroke="black" cx="362" cy="-18" rx="18" ry="18"/>
<text text-anchor="middle" x="362" y="-14.3" font-family="Helvetica,Arial,sans-serif" font-size="14.00">6</text>
</g>
<!-- 3&#45;&gt;6 -->
<g id="edge10" class="edge">
<title>3&#45;&gt;6</title>
<path fill="none" stroke="black" d="M278.92,-92.4C283.57,-75.45 292.94,-50.2 310,-35 316.64,-29.08 325.4,-25.22 333.78,-22.69"/>
<polygon fill="black" stroke="black" points="334.8,-26.05 343.65,-20.23 333.1,-19.26 334.8,-26.05"/>
<text text-anchor="middle" x="318" y="-38.8" font-family="Helvetica,Arial,sans-serif" font-size="14.00">14</text>
</g>
<!-- 1 -->
<g id="node3" class="node">
<title>1</title>
<ellipse fill="none" stroke="black" cx="106" cy="-119" rx="18" ry="18"/>
<text text-anchor="middle" x="106" y="-115.3" font-family="Helvetica,Arial,sans-serif" font-size="14.00">1</text>
</g>
<!-- 1&#45;&gt;2 -->
<g id="edge4" class="edge">
<title>1&#45;&gt;2</title>
<path fill="none" stroke="black" d="M122.15,-127.74C130.4,-132.52 140.78,-138.55 150,-144 153.71,-146.19 157.62,-148.52 161.45,-150.81"/>
<polygon fill="black" stroke="black" points="159.66,-153.82 170.04,-155.96 163.26,-147.82 159.66,-153.82"/>
<text text-anchor="middle" x="146" y="-147.8" font-family="Helvetica,Arial,sans-serif" font-size="14.00">8</text>
</g>
<!-- 1&#45;&gt;3 -->
<g id="edge3" class="edge">
<title>1&#45;&gt;3</title>
<path fill="none" stroke="black" d="M124.14,-118.07C152.84,-116.51 210.87,-113.37 245.39,-111.5"/>
<polygon fill="black" stroke="black" points="245.91,-114.97 255.7,-110.94 245.53,-107.98 245.91,-114.97"/>
<text text-anchor="middle" x="186" y="-118.8" font-family="Helvetica,Arial,sans-serif" font-size="14.00">10</text>
</g>
<!-- 1&#45;&gt;4 -->
<g id="edge2" class="edge">
<title>1&#45;&gt;4</title>
<path fill="none" stroke="black" d="M116.8,-133.53C130.33,-153.06 154.58,-186.01 168,-192 223.64,-216.84 297.07,-197.06 335.33,-183.34"/>
<polygon fill="black" stroke="black" points="337,-186.45 345.14,-179.67 334.55,-179.89 337,-186.45"/>
<text text-anchor="middle" x="230" y="-206.8" font-family="Helvetica,Arial,sans-serif" font-size="14.00">10</text>
</g>
<!-- 4&#45;&gt;2 -->
<g id="edge16" class="edge">
<title>4&#45;&gt;2</title>
<path fill="none" stroke="black" d="M343.93,-172.22C313.73,-170.83 250.67,-167.93 214.35,-166.26"/>
<polygon fill="black" stroke="black" points="214.15,-162.74 204,-165.78 213.83,-169.74 214.15,-162.74"/>
<text text-anchor="middle" x="274" y="-172.8" font-family="Helvetica,Arial,sans-serif" font-size="14.00">2</text>
</g>
<!-- 4&#45;&gt;5 -->
<g id="edge14" class="edge">
<title>4&#45;&gt;5</title>
<path fill="none" stroke="black" d="M376.24,-161.91C382.76,-156.48 390.76,-149.86 398,-144 404.87,-138.44 412.4,-132.45 419.23,-127.06"/>
<polygon fill="black" stroke="black" points="421.69,-129.58 427.38,-120.64 417.36,-124.08 421.69,-129.58"/>
<text text-anchor="middle" x="402" y="-147.8" font-family="Helvetica,Arial,sans-serif" font-size="14.00">1</text>
</g>
<!-- 4&#45;&gt;7 -->
<g id="edge15" class="edge">
<title>4&#45;&gt;7</title>
<path fill="none" stroke="black" d="M379.43,-167.96C387.48,-165.41 397.3,-162.18 406,-159 430.34,-150.09 437.37,-149.63 460,-137 472.5,-130.03 474.85,-126.98 486,-118 490.86,-114.09 495.96,-109.73 500.71,-105.54"/>
<polygon fill="black" stroke="black" points="503.16,-108.05 508.28,-98.78 498.5,-102.83 503.16,-108.05"/>
<text text-anchor="middle" x="442" y="-155.8" font-family="Helvetica,Arial,sans-serif" font-size="14.00">7</text>
</g>
<!-- 5&#45;&gt;7 -->
<g id="edge5" class="edge">
<title>5&#45;&gt;7</title>
<path fill="none" stroke="black" d="M459.54,-105.12C469.78,-102.1 483.15,-98.16 494.8,-94.72"/>
<polygon fill="black" stroke="black" points="495.88,-98.06 504.48,-91.87 493.9,-91.34 495.88,-98.06"/>
<text text-anchor="middle" x="482" y="-102.8" font-family="Helvetica,Arial,sans-serif" font-size="14.00">7</text>
</g>
<!-- 6&#45;&gt;7 -->
<g id="edge6" class="edge">
<title>6&#45;&gt;7</title>
<path fill="none" stroke="black" d="M380.41,-18.26C406.15,-19.5 454.65,-25.25 486,-50 491.88,-54.64 497.69,-60.25 502.85,-65.7"/>
<polygon fill="black" stroke="black" points="500.54,-68.36 509.86,-73.41 505.72,-63.65 500.54,-68.36"/>
<text text-anchor="middle" x="442" y="-38.8" font-family="Helvetica,Arial,sans-serif" font-size="14.00">16</text>
</g>
<!-- 0 -->
<g id="node8" class="node">
<title>0</title>
<ellipse fill="none" stroke="black" cx="18" cy="-119" rx="18" ry="18"/>
<text text-anchor="middle" x="18" y="-115.3" font-family="Helvetica,Arial,sans-serif" font-size="14.00">0</text>
</g>
<!-- 0&#45;&gt;2 -->
<g id="edge11" class="edge">
<title>0&#45;&gt;2</title>
<path fill="none" stroke="black" d="M33.58,-128.03C39.71,-131.53 47.03,-135.33 54,-138 88.5,-151.21 130.71,-158.43 157.72,-162"/>
<polygon fill="black" stroke="black" points="157.61,-165.51 167.96,-163.28 158.47,-158.57 157.61,-165.51"/>
<text text-anchor="middle" x="106" y="-159.8" font-family="Helvetica,Arial,sans-serif" font-size="14.00">1</text>
</g>
<!-- 0&#45;&gt;1 -->
<g id="edge12" class="edge">
<title>0&#45;&gt;1</title>
<path fill="none" stroke="black" d="M36.4,-119C48.25,-119 64.18,-119 77.71,-119"/>
<polygon fill="black" stroke="black" points="77.92,-122.5 87.92,-119 77.92,-115.5 77.92,-122.5"/>
<text text-anchor="middle" x="62" y="-122.8" font-family="Helvetica,Arial,sans-serif" font-size="14.00">28</text>
</g>
<!-- 0&#45;&gt;6 -->
<g id="edge13" class="edge">
<title>0&#45;&gt;6</title>
<path fill="none" stroke="black" d="M23.04,-101.59C31.79,-68.77 55.82,-1 105,-1 105,-1 105,-1 275,-1 295.42,-1 318.05,-5.67 334.98,-10.11"/>
<polygon fill="black" stroke="black" points="334.13,-13.51 344.7,-12.81 336,-6.76 334.13,-13.51"/>
<text text-anchor="middle" x="186" y="-4.8" font-family="Helvetica,Arial,sans-serif" font-size="14.00">2</text>
</g>
</g>
</svg>
