<?xml version="1.0" encoding="UTF-8" standalone="no"?>
<!DOCTYPE svg PUBLIC "-//W3C//DTD SVG 1.1//EN"
 "http://www.w3.org/Graphics/SVG/1.1/DTD/svg11.dtd">
<!-- Generated by graphviz version 2.43.0 (0)
 -->
<!-- Title: finite_state_machine Pages: 1 -->
<svg width="284pt" height="156pt"
 viewBox="0.00 0.00 284.00 155.65" xmlns="http://www.w3.org/2000/svg" xmlns:xlink="http://www.w3.org/1999/xlink">
<g id="graph0" class="graph" transform="scale(1 1) rotate(0) translate(4 151.65)">
<title>finite_state_machine</title>
<polygon fill="white" stroke="transparent" points="-4,4 -4,-151.65 280,-151.65 280,4 -4,4"/>
<!-- 1 -->
<g id="node1" class="node">
<title>1</title>
<ellipse fill="none" stroke="black" cx="18" cy="-59.65" rx="18" ry="18"/>
<text text-anchor="middle" x="18" y="-55.95" font-family="Helvetica,Arial,sans-serif" font-size="14.00">1</text>
</g>
<!-- 0 -->
<g id="node2" class="node">
<title>0</title>
<ellipse fill="none" stroke="black" cx="98" cy="-53.65" rx="18" ry="18"/>
<text text-anchor="middle" x="98" y="-49.95" font-family="Helvetica,Arial,sans-serif" font-size="14.00">0</text>
</g>
<!-- 1&#45;&gt;0 -->
<g id="edge1" class="edge">
<title>1&#45;&gt;0</title>
<path fill="none" stroke="black" d="M36.16,-58.51C44.04,-57.97 53.49,-57.31 62,-56.65 64.55,-56.45 67.21,-56.23 69.87,-56.01"/>
<polygon fill="black" stroke="black" points="70.24,-59.49 79.91,-55.16 69.66,-52.52 70.24,-59.49"/>
<text text-anchor="middle" x="58" y="-60.45" font-family="Helvetica,Arial,sans-serif" font-size="14.00">0</text>
</g>
<!-- 3 -->
<g id="node3" class="node">
<title>3</title>
<ellipse fill="none" stroke="black" cx="258" cy="-20.65" rx="18" ry="18"/>
<text text-anchor="middle" x="258" y="-16.95" font-family="Helvetica,Arial,sans-serif" font-size="14.00">3</text>
</g>
<!-- 1&#45;&gt;3 -->
<g id="edge2" class="edge">
<title>1&#45;&gt;3</title>
<path fill="none" stroke="black" d="M31.73,-47.67C38.01,-42.35 45.95,-36.45 54,-32.65 64.72,-27.57 68.27,-28.42 80,-26.65 132.39,-18.71 194.46,-18.74 229.44,-19.61"/>
<polygon fill="black" stroke="black" points="229.69,-23.12 239.79,-19.91 229.9,-16.12 229.69,-23.12"/>
<text text-anchor="middle" x="138" y="-24.45" font-family="Helvetica,Arial,sans-serif" font-size="14.00">1</text>
</g>
<!-- 2 -->
<g id="node4" class="node">
<title>2</title>
<ellipse fill="none" stroke="black" cx="178" cy="-79.65" rx="18" ry="18"/>
<text text-anchor="middle" x="178" y="-75.95" font-family="Helvetica,Arial,sans-serif" font-size="14.00">2</text>
</g>
<!-- 1&#45;&gt;2 -->
<g id="edge3" class="edge">
<title>1&#45;&gt;2</title>
<path fill="none" stroke="black" d="M23.66,-76.82C28.66,-91.81 38.09,-112.96 54,-124.65 63.48,-131.61 68.29,-128.53 80,-129.65 107.52,-132.27 118.43,-139.09 142,-124.65 150.25,-119.59 157.3,-111.83 162.87,-104.18"/>
<polygon fill="black" stroke="black" points="166.08,-105.67 168.7,-95.4 160.25,-101.79 166.08,-105.67"/>
<text text-anchor="middle" x="98" y="-136.45" font-family="Helvetica,Arial,sans-serif" font-size="14.00">3</text>
</g>
<!-- 0&#45;&gt;1 -->
<g id="edge10" class="edge">
<title>0&#45;&gt;1</title>
<path fill="none" stroke="black" d="M82.85,-43.53C74.55,-38.82 63.8,-34.82 54,-37.65 49.53,-38.93 45.09,-40.98 40.94,-43.31"/>
<polygon fill="black" stroke="black" points="39,-40.39 32.43,-48.71 42.75,-46.31 39,-40.39"/>
<text text-anchor="middle" x="58" y="-41.45" font-family="Helvetica,Arial,sans-serif" font-size="14.00">2</text>
</g>
<!-- 0&#45;&gt;2 -->
<g id="edge9" class="edge">
<title>0&#45;&gt;2</title>
<path fill="none" stroke="black" d="M115.54,-59.16C125.85,-62.6 139.33,-67.09 151.04,-70.99"/>
<polygon fill="black" stroke="black" points="150.16,-74.39 160.75,-74.23 152.37,-67.75 150.16,-74.39"/>
<text text-anchor="middle" x="138" y="-70.45" font-family="Helvetica,Arial,sans-serif" font-size="14.00">4</text>
</g>
<!-- 3&#45;&gt;1 -->
<g id="edge8" class="edge">
<title>3&#45;&gt;1</title>
<path fill="none" stroke="black" d="M240.71,-15.06C217.17,-7.69 172.3,3.75 134,-1.65 97.37,-6.81 85.87,-5.86 54,-24.65 47.83,-28.28 41.97,-33.26 36.87,-38.32"/>
<polygon fill="black" stroke="black" points="34.29,-35.96 30,-45.64 39.39,-40.75 34.29,-35.96"/>
<text text-anchor="middle" x="138" y="-5.45" font-family="Helvetica,Arial,sans-serif" font-size="14.00">0</text>
</g>
<!-- 3&#45;&gt;2 -->
<g id="edge7" class="edge">
<title>3&#45;&gt;2</title>
<path fill="none" stroke="black" d="M240.51,-25.02C232.07,-27.78 221.93,-31.91 214,-37.65 206.86,-42.81 200.3,-49.75 194.83,-56.5"/>
<polygon fill="black" stroke="black" points="191.79,-54.72 188.53,-64.8 197.37,-58.95 191.79,-54.72"/>
<text text-anchor="middle" x="218" y="-41.45" font-family="Helvetica,Arial,sans-serif" font-size="14.00">0</text>
</g>
<!-- 2&#45;&gt;1 -->
<g id="edge5" class="edge">
<title>2&#45;&gt;1</title>
<path fill="none" stroke="black" d="M159.98,-83.16C154.29,-84.17 147.9,-85.14 142,-85.65 102.78,-88.98 91.49,-87.63 54,-75.65 50.59,-74.56 47.07,-73.22 43.64,-71.79"/>
<polygon fill="black" stroke="black" points="44.92,-68.53 34.36,-67.63 42.06,-74.92 44.92,-68.53"/>
<text text-anchor="middle" x="98" y="-90.45" font-family="Helvetica,Arial,sans-serif" font-size="14.00">0</text>
</g>
<!-- 2&#45;&gt;0 -->
<g id="edge4" class="edge">
<title>2&#45;&gt;0</title>
<path fill="none" stroke="black" d="M167.21,-64.9C161.03,-56.99 152.28,-47.99 142,-43.65 136.3,-41.24 129.92,-41.34 123.86,-42.62"/>
<polygon fill="black" stroke="black" points="122.64,-39.33 114.12,-45.62 124.71,-46.01 122.64,-39.33"/>
<text text-anchor="middle" x="138" y="-47.45" font-family="Helvetica,Arial,sans-serif" font-size="14.00">0</text>
</g>
<!-- 2&#45;&gt;3 -->
<g id="edge6" class="edge">
<title>2&#45;&gt;3</title>
<path fill="none" stroke="black" d="M194.82,-72.64C203.26,-68.55 213.61,-62.96 222,-56.65 227.9,-52.21 233.72,-46.77 238.87,-41.47"/>
<polygon fill="black" stroke="black" points="241.62,-43.66 245.88,-33.96 236.5,-38.89 241.62,-43.66"/>
<text text-anchor="middle" x="218" y="-65.45" font-family="Helvetica,Arial,sans-serif" font-size="14.00">5</text>
</g>
</g>
</svg>
